<svg width="32" height="32" viewBox="0 0 32 32" fill="none" xmlns="http://www.w3.org/2000/svg">
<g clip-path="url(#clip0_5_30)">
<path d="M7.968 14.016C8.544 14.016 9.03467 14.2187 9.44 14.624C9.84533 15.0293 10.048 15.52 10.048 16.096C10.048 16.6507 9.84533 17.136 9.44 17.552C9.03467 17.968 8.544 18.176 7.968 18.176C7.392 18.176 6.90133 17.968 6.496 17.552C6.09067 17.136 5.888 16.6507 5.888 16.096C5.888 15.52 6.09067 15.0293 6.496 14.624C6.90133 14.2187 7.392 14.016 7.968 14.016ZM24.096 2.07999C25.0347 2.07999 25.8667 2.24532 26.592 2.57599C27.3173 2.90665 27.9307 3.33332 28.432 3.85599C28.9333 4.37865 29.3173 4.97065 29.584 5.63199C29.8507 6.29332 29.984 6.94399 29.984 7.58399V23.936C29.984 24.4267 29.872 24.9067 29.648 25.376C29.424 25.8453 29.1253 26.272 28.752 26.656C28.3787 27.04 27.952 27.3493 27.472 27.584C26.992 27.8187 26.496 27.936 25.984 27.936V10.048C25.984 9.49332 25.8773 8.97599 25.664 8.49599C25.4507 8.01599 25.1627 7.59465 24.8 7.23199C24.4373 6.86932 24.016 6.58132 23.536 6.36799C23.056 6.15465 22.5387 6.04799 21.984 6.04799H4C4 5.57865 4.10667 5.10932 4.32 4.63999C4.53333 4.17065 4.82133 3.74399 5.184 3.35999C5.54667 2.97599 5.97333 2.66665 6.464 2.43199C6.95467 2.19732 7.47733 2.07999 8.032 2.07999H24.096ZM21.312 8.06399C22.272 8.06399 22.9547 8.32532 23.36 8.84799C23.7653 9.37065 23.968 10.0693 23.968 10.944V29.792C23.968 30.3253 23.744 30.8267 23.296 31.296C22.848 31.7653 22.2827 32 21.6 32H2.208C1.632 32 1.12 31.7653 0.672 31.296C0.224 30.8267 0 30.2613 0 29.6V10.4C0 9.71732 0.186667 9.15732 0.56 8.71999C0.933333 8.28265 1.42933 8.06399 2.048 8.06399H21.312ZM20 12.928C20 12.6933 19.9253 12.5013 19.776 12.352C19.6267 12.2027 19.4347 12.128 19.2 12.128H4.768C4.53333 12.128 4.34133 12.2027 4.192 12.352C4.04267 12.5013 3.968 12.6933 3.968 12.928V20.064C4.16 20.2987 4.336 20.56 4.496 20.848C4.656 21.136 4.85333 21.408 5.088 21.664C5.32267 21.92 5.632 22.1387 6.016 22.32C6.4 22.5013 6.93333 22.592 7.616 22.592C8.61867 22.592 9.43467 22.432 10.064 22.112C10.6933 21.792 11.248 21.3867 11.728 20.896C12.208 20.4053 12.656 19.8773 13.072 19.312C13.488 18.7467 13.984 18.2133 14.56 17.712C15.136 17.2107 15.8507 16.784 16.704 16.432C17.5573 16.08 18.656 15.8827 20 15.84V12.928Z" fill="#B1B1B1"/>
</g>
<defs>
<clipPath id="clip0_5_30">
<rect width="32" height="32" fill="white"/>
</clipPath>
</defs>
</svg>
